<svg id="Layer_1" data-name="Layer 1" xmlns="http://www.w3.org/2000/svg" xmlns:xlink="http://www.w3.org/1999/xlink" viewBox="0 0 512 512"><defs><radialGradient id="radial-gradient" cx="429.68" cy="-291.37" r="320.72" gradientTransform="translate(-661.92 544.89) scale(2.1 2.1)" gradientUnits="userSpaceOnUse"><stop offset="0" stop-color="#cce3ee"/><stop offset="0.02" stop-color="#b0d9ea"/><stop offset="0.07" stop-color="#7bc6e3"/><stop offset="0.12" stop-color="#4fb6dd"/><stop offset="0.17" stop-color="#2da9d9"/><stop offset="0.22" stop-color="#14a0d6"/><stop offset="0.26" stop-color="#059bd4"/><stop offset="0.29" stop-color="#0099d3"/><stop offset="0.65" stop-color="#006e98"/><stop offset="0.89" stop-color="#0e3e6c"/><stop offset="1" stop-color="#152757"/></radialGradient><radialGradient id="radial-gradient-2" cx="429.68" cy="-291.37" r="320.72" xlink:href="#radial-gradient"/></defs><title>amazon-other</title><path d="M256,4C117,4,4.34,116.73,4.34,256.14,4.34,395,117,508,256,508S507.66,395,507.66,256.14C507.66,116.73,395,4,256,4ZM182.58,250.32c5.54-17.86,17.7-30,34.56-37.79,12.45-5.54,25.73-8.44,39.28-10.38,9.26-1,18.8-2.08,28.06-2.77,1.39,0,2.35-.28,2.35-1.8-.27-6.78.55-13.43-.82-20.49-1.94-10.66-8.72-17.17-20.33-18.41-11.06-1.38-20.6,2.21-28.06,10.8a30.29,30.29,0,0,0-4.7,10.52,10.67,10.67,0,0,1-1.67,3.88c-1.37,2.77-3.72,3.6-6.5,3.18-10.92-1-21.42-2.49-32.5-3.88a8.85,8.85,0,0,1-5.81-2.77c-1.1-1.38-1.1-2.91-.82-4.85,4.7-24.37,19.07-40.56,41.76-49.56a105.06,105.06,0,0,1,27.94-6.37c3.45-.28,6.63,0,10-.28,15.76-.14,30.56,2.63,44.52,9.83,12.18,6.23,21.3,15.5,25.18,28.8a71.75,71.75,0,0,1,3,17.72c.69,28.1,0,56.07.28,84.31a44.59,44.59,0,0,0,9.4,25.75c1.39,1.39,2.49,3.18,3.87,4.85,3.33,4.15,2.78,7.89-1.1,11.21-8,7.06-16.31,14-24.33,21.18-4.84,4.29-10,4.71-14.94-.55a103.57,103.57,0,0,1-15.49-18.28c-1.66-2.63-1.66-2.63-4-.42-6.78,6.78-13.69,12.88-22.26,17.31A58.05,58.05,0,0,1,246,327.3c-8.57,1-17.15,1.25-25.85-.55-21.3-4.57-36.79-20.9-39.82-42.78C179,272.61,179,261.26,182.58,250.32Zm211.14,99.13a103.35,103.35,0,0,1-15.35,9.83c-26.83,16.06-56.14,25.61-87,30.18-12,2.08-24.06,3-32.62,2.77-33,0-61.25-4.71-88.92-15a242,242,0,0,1-81.71-49.15c-2.63-2.08-2.76-4.57-.69-6,1.66-1.11,3.33-.28,4.7.28,3.6,2.21,7.05,4.15,10.79,6.09a296.09,296.09,0,0,0,39.55,17.58,338.51,338.51,0,0,0,53.92,14.81,362.53,362.53,0,0,0,38.32,5,330.53,330.53,0,0,0,33,1,323.22,323.22,0,0,0,57.8-6.78,313.69,313.69,0,0,0,60.28-18.69,21.27,21.27,0,0,1,4-1,5.12,5.12,0,0,1,5.66,3.18C396.35,345.43,395.52,347.79,393.72,349.45Zm31.94-23.4c-.69,18.14-6.64,34.06-18.53,47.76a21,21,0,0,1-4.42,3.46c-1.1.69-2.49,1.38-3.88.14-1.1-.83-.82-2.35-.41-3.46a230.57,230.57,0,0,0,9.54-26.3,59.36,59.36,0,0,0,1.66-11.91,6.6,6.6,0,0,0-5.25-5.68,34.63,34.63,0,0,0-12-1.52c-9,0-17,1.25-25,1.94a12.06,12.06,0,0,1-3.19.14c-2.07-.14-2.76-1.66-1.8-3.46a6.83,6.83,0,0,1,2.49-2.35,56.68,56.68,0,0,1,26.83-9.28c9.12-.83,18.25-.83,27.65,1.39C424.56,318.58,426.22,320.38,425.66,326.05Z" fill="url(#radial-gradient)"/><path d="M251.16,291.44c8.85,1.11,15.9-1.8,22-7.61,5.68-5.68,9.27-12.74,11.48-20.49,2.21-7.2,2.21-15.23,2.21-21.46,0-4.43-.27-7.75,0-10.66,0-2.08-.82-2.77-2.76-2.63-7.46.28-15.08.55-22.4,2.22-8,1.94-15.21,5.12-20.74,11.21-8.85,10.24-10.24,22.57-6.22,35.16C237.06,285.07,242.58,290.2,251.16,291.44Z" fill="url(#radial-gradient-2)"/><path d="M258.09,6.13c-139,0-251.65,112.69-251.65,252.1,0,138.86,112.69,251.83,251.65,251.83s251.67-113,251.67-251.83C509.76,118.83,397.07,6.13,258.09,6.13ZM184.67,252.42c5.54-17.86,17.7-30,34.56-37.79,12.45-5.54,25.73-8.44,39.28-10.38,9.26-1,18.8-2.08,28.06-2.77,1.39,0,2.35-.28,2.35-1.8-.27-6.78.55-13.43-.82-20.49-1.94-10.66-8.72-17.17-20.33-18.41-11.06-1.38-20.6,2.21-28.06,10.8A30.29,30.29,0,0,0,235,182.1a10.67,10.67,0,0,1-1.67,3.88c-1.37,2.77-3.72,3.6-6.5,3.18-10.92-1-21.42-2.49-32.5-3.88a8.85,8.85,0,0,1-5.81-2.77c-1.1-1.38-1.1-2.91-.82-4.85,4.7-24.37,19.07-40.56,41.76-49.56a105.06,105.06,0,0,1,27.94-6.37c3.45-.28,6.63,0,10-.28,15.76-.14,30.56,2.63,44.52,9.83,12.18,6.23,21.3,15.5,25.18,28.8a71.75,71.75,0,0,1,3,17.72c.69,28.1,0,56.07.28,84.31a44.59,44.59,0,0,0,9.4,25.75c1.39,1.39,2.49,3.18,3.87,4.85,3.33,4.15,2.78,7.89-1.1,11.21-8,7.06-16.31,14-24.33,21.18-4.84,4.29-10,4.71-14.94-.55a103.57,103.57,0,0,1-15.49-18.28c-1.66-2.63-1.66-2.63-4-.42-6.78,6.78-13.69,12.88-22.26,17.31a58.05,58.05,0,0,1-23.38,6.23c-8.57,1-17.15,1.25-25.85-.55-21.3-4.57-36.79-20.9-39.82-42.78C181.08,274.71,181.08,263.36,184.67,252.42Zm211.14,99.13a103.35,103.35,0,0,1-15.35,9.83c-26.83,16.06-56.14,25.61-87,30.18-12,2.08-24.06,3-32.62,2.77-33,0-61.25-4.71-88.92-15a242,242,0,0,1-81.71-49.15c-2.63-2.08-2.76-4.57-.69-6,1.66-1.11,3.33-.28,4.7.28,3.6,2.21,7.05,4.15,10.79,6.09a296.09,296.09,0,0,0,39.55,17.58A338.51,338.51,0,0,0,198.49,363a362.53,362.53,0,0,0,38.32,5,330.53,330.53,0,0,0,33,1,323.22,323.22,0,0,0,57.8-6.78,313.69,313.69,0,0,0,60.28-18.69,21.27,21.27,0,0,1,4-1,5.12,5.12,0,0,1,5.66,3.18C398.45,347.54,397.62,349.89,395.82,351.55Zm31.94-23.4c-.69,18.14-6.64,34.06-18.53,47.76a21,21,0,0,1-4.42,3.46c-1.1.69-2.49,1.38-3.88.14-1.1-.83-.82-2.35-.41-3.46a230.57,230.57,0,0,0,9.54-26.3,59.36,59.36,0,0,0,1.66-11.91,6.6,6.6,0,0,0-5.25-5.68,34.63,34.63,0,0,0-12-1.52c-9,0-17,1.25-25,1.94a12.06,12.06,0,0,1-3.19.14c-2.07-.14-2.76-1.66-1.8-3.46a6.83,6.83,0,0,1,2.49-2.35,56.68,56.68,0,0,1,26.83-9.28c9.12-.83,18.25-.83,27.65,1.39C426.66,320.68,428.31,322.48,427.76,328.15Z" fill="none" stroke="#0f2975" stroke-width="2"/><path d="M253.26,293.54c8.85,1.11,15.9-1.8,22-7.61,5.68-5.68,9.27-12.74,11.48-20.49,2.21-7.2,2.21-15.23,2.21-21.46,0-4.43-.27-7.75,0-10.66,0-2.08-.82-2.77-2.76-2.63-7.46.28-15.08.55-22.4,2.22-8,1.94-15.21,5.12-20.74,11.21-8.85,10.24-10.24,22.57-6.22,35.16C239.16,287.17,244.68,292.3,253.26,293.54Z" fill="none" stroke="#0f2975" stroke-width="2"/><path d="M253.89,1.93C114.94,1.93,2.24,114.63,2.24,254c0,138.86,112.69,251.83,251.65,251.83S505.56,392.9,505.56,254C505.56,114.63,392.87,1.93,253.89,1.93ZM180.48,248.22c5.54-17.86,17.7-30,34.56-37.79,12.45-5.54,25.73-8.44,39.28-10.38,9.26-1,18.8-2.08,28.06-2.77,1.39,0,2.35-.28,2.35-1.8-.27-6.78.55-13.43-.82-20.49-1.94-10.66-8.72-17.17-20.33-18.41-11.06-1.38-20.6,2.21-28.06,10.8a30.29,30.29,0,0,0-4.7,10.52,10.67,10.67,0,0,1-1.67,3.88c-1.37,2.77-3.72,3.6-6.5,3.18-10.92-1-21.42-2.49-32.5-3.88a8.85,8.85,0,0,1-5.81-2.77c-1.1-1.38-1.1-2.91-.82-4.85,4.7-24.37,19.07-40.56,41.76-49.56a105.06,105.06,0,0,1,27.94-6.37c3.45-.28,6.63,0,10-.28,15.76-.14,30.56,2.63,44.52,9.83,12.18,6.23,21.3,15.5,25.18,28.8a71.75,71.75,0,0,1,3,17.72c.69,28.1,0,56.07.28,84.31a44.59,44.59,0,0,0,9.4,25.75c1.39,1.39,2.49,3.18,3.87,4.85,3.33,4.15,2.78,7.89-1.1,11.21-8,7.06-16.31,14-24.33,21.18-4.84,4.29-10,4.71-14.94-.55a103.57,103.57,0,0,1-15.49-18.28c-1.66-2.63-1.66-2.63-4-.42-6.78,6.78-13.69,12.88-22.26,17.31a58.05,58.05,0,0,1-23.38,6.23c-8.57,1-17.15,1.25-25.85-.55-21.3-4.57-36.79-20.9-39.82-42.78C176.88,270.51,176.88,259.16,180.48,248.22Zm211.14,99.13a103.35,103.35,0,0,1-15.35,9.83c-26.83,16.06-56.14,25.61-87,30.18-12,2.08-24.06,3-32.62,2.77-33,0-61.25-4.71-88.92-15A242,242,0,0,1,86,326c-2.63-2.08-2.76-4.57-.69-6,1.66-1.11,3.33-.28,4.7.28,3.6,2.21,7.05,4.15,10.79,6.09A296.09,296.09,0,0,0,140.38,344a338.51,338.51,0,0,0,53.92,14.81,362.53,362.53,0,0,0,38.32,5,330.53,330.53,0,0,0,33,1,323.22,323.22,0,0,0,57.8-6.78,313.69,313.69,0,0,0,60.28-18.69,21.27,21.27,0,0,1,4-1,5.12,5.12,0,0,1,5.66,3.18C394.26,343.33,393.42,345.69,391.62,347.35ZM423.57,324c-.69,18.14-6.64,34.06-18.53,47.76a21,21,0,0,1-4.42,3.46c-1.1.69-2.49,1.38-3.88.14-1.1-.83-.82-2.35-.41-3.46a230.57,230.57,0,0,0,9.54-26.3,59.36,59.36,0,0,0,1.66-11.91,6.6,6.6,0,0,0-5.25-5.68,34.63,34.63,0,0,0-12-1.52c-9,0-17,1.25-25,1.94a12.06,12.06,0,0,1-3.19.14c-2.07-.14-2.76-1.66-1.8-3.46a6.83,6.83,0,0,1,2.49-2.35,56.68,56.68,0,0,1,26.83-9.28c9.12-.83,18.25-.83,27.65,1.39C422.46,316.48,424.12,318.28,423.57,324Z" fill="none" stroke="#cad8e9" stroke-width="2"/><path d="M249.07,289.34c8.85,1.11,15.9-1.8,22-7.61,5.68-5.68,9.27-12.74,11.48-20.49,2.21-7.2,2.21-15.23,2.21-21.46,0-4.43-.27-7.75,0-10.66,0-2.08-.82-2.77-2.76-2.63-7.46.28-15.08.55-22.4,2.22-8,1.94-15.21,5.12-20.74,11.21-8.85,10.24-10.24,22.57-6.22,35.16C235,283,240.49,288.09,249.07,289.34Z" fill="none" stroke="#cad8e9" stroke-width="2"/><path d="M256,4C117,4,4.34,116.73,4.34,256.14,4.34,395,117,508,256,508S507.66,395,507.66,256.14C507.66,116.73,395,4,256,4ZM182.58,250.32c5.54-17.86,17.7-30,34.56-37.79,12.45-5.54,25.73-8.44,39.28-10.38,9.26-1,18.8-2.08,28.06-2.77,1.39,0,2.35-.28,2.35-1.8-.27-6.78.55-13.43-.82-20.49-1.94-10.66-8.72-17.17-20.33-18.41-11.06-1.38-20.6,2.21-28.06,10.8a30.29,30.29,0,0,0-4.7,10.52,10.67,10.67,0,0,1-1.67,3.88c-1.37,2.77-3.72,3.6-6.5,3.18-10.92-1-21.42-2.49-32.5-3.88a8.85,8.85,0,0,1-5.81-2.77c-1.1-1.38-1.1-2.91-.82-4.85,4.7-24.37,19.07-40.56,41.76-49.56a105.06,105.06,0,0,1,27.94-6.37c3.45-.28,6.63,0,10-.28,15.76-.14,30.56,2.63,44.52,9.83,12.18,6.23,21.3,15.5,25.18,28.8a71.75,71.75,0,0,1,3,17.72c.69,28.1,0,56.07.28,84.31a44.59,44.59,0,0,0,9.4,25.75c1.39,1.39,2.49,3.18,3.87,4.85,3.33,4.15,2.78,7.89-1.1,11.21-8,7.06-16.31,14-24.33,21.18-4.84,4.29-10,4.71-14.94-.55a103.57,103.57,0,0,1-15.49-18.28c-1.66-2.63-1.66-2.63-4-.42-6.78,6.78-13.69,12.88-22.26,17.31A58.05,58.05,0,0,1,246,327.3c-8.57,1-17.15,1.25-25.85-.55-21.3-4.57-36.79-20.9-39.82-42.78C179,272.61,179,261.26,182.58,250.32Zm211.14,99.13a103.35,103.35,0,0,1-15.35,9.83c-26.83,16.06-56.14,25.61-87,30.18-12,2.08-24.06,3-32.62,2.77-33,0-61.25-4.71-88.92-15a242,242,0,0,1-81.71-49.15c-2.63-2.08-2.76-4.57-.69-6,1.66-1.11,3.33-.28,4.7.28,3.6,2.21,7.05,4.15,10.79,6.09a296.09,296.09,0,0,0,39.55,17.58,338.51,338.51,0,0,0,53.92,14.81,362.53,362.53,0,0,0,38.32,5,330.53,330.53,0,0,0,33,1,323.22,323.22,0,0,0,57.8-6.78,313.69,313.69,0,0,0,60.28-18.69,21.27,21.27,0,0,1,4-1,5.12,5.12,0,0,1,5.66,3.18C396.35,345.43,395.52,347.79,393.72,349.45Zm31.94-23.4c-.69,18.14-6.64,34.06-18.53,47.76a21,21,0,0,1-4.42,3.46c-1.1.69-2.49,1.38-3.88.14-1.1-.83-.82-2.35-.41-3.46a230.57,230.57,0,0,0,9.54-26.3,59.36,59.36,0,0,0,1.66-11.91,6.6,6.6,0,0,0-5.25-5.68,34.63,34.63,0,0,0-12-1.52c-9,0-17,1.25-25,1.94a12.06,12.06,0,0,1-3.19.14c-2.07-.14-2.76-1.66-1.8-3.46a6.83,6.83,0,0,1,2.49-2.35,56.68,56.68,0,0,1,26.83-9.28c9.12-.83,18.25-.83,27.65,1.39C424.56,318.58,426.22,320.38,425.66,326.05Z" fill="none" stroke="#8daed4" stroke-width="2"/><path d="M251.16,291.44c8.85,1.11,15.9-1.8,22-7.61,5.68-5.68,9.27-12.74,11.48-20.49,2.21-7.2,2.21-15.23,2.21-21.46,0-4.43-.27-7.75,0-10.66,0-2.08-.82-2.77-2.76-2.63-7.46.28-15.08.55-22.4,2.22-8,1.94-15.21,5.12-20.74,11.21-8.85,10.24-10.24,22.57-6.22,35.16C237.06,285.07,242.58,290.2,251.16,291.44Z" fill="none" stroke="#8daed4" stroke-width="2"/></svg>